<svg xmlns="http://www.w3.org/2000/svg" viewBox="0 0 50 50"><path fill="#ff6762" d="M46 .957l-.75.16-7.322 2.979-8.694 7.39-3.078 12.235 1.964 9.812 4.192 7.41 6.938 5.34 4.573 1.844 2.173.853a1.13 1.13 0 00-.405-.775c-1.914-1.463-9.893-8.447-9.893-23.205 0-14.759 7.98-21.742 9.893-23.205.222-.17.409-.519.409-.795z"/><path fill="#de3e6c" d="M46 .824l-1.247.16-8.909 2.623-10.87 6.022-5.02 9.256v11.054l4.982 8.358 4.454 4.584 7.813 3.728 5.246 1.664 3.549.735.002-.006c0-.277-.221-.554-.49-.633-2.753-.808-16.15-5.65-16.15-23.369 0-17.721 13.398-22.562 16.15-23.37.268-.078.49-.354.49-.63z"/><path fill="#992e6a" d="M46 .64l-1.398.112-5.481.87-9.754 2.653-9.361 5.448-6.653 10.142.052 9.3 4.39 8.608 8.548 6.418 7.838 2.944 6.652 1.627 5.104.52a.707.707 0 00.063-.28V49a.626.626 0 00-.5-.588C42.146 47.767 23.02 43.29 23.02 25S42.143 2.233 45.5 1.588A.626.626 0 0046 1z"/><path fill="#612961" d="M45.857.277l-.131.006-1.912.057-4.85.332-5.22.682-5.68 1.32-4.954 1.908-3.946 2.436-3.737 2.367-4.422 5.107-2.563 5.576-.23 7.914 2.068 8.07 7.322 7.423 10.326 4.136 9.04 1.547 6.815.531 2.103.016a.245.245 0 00.114-.203v-.5S16.68 45.604 16.68 25 46 1 46 1V.5a.247.247 0 00-.143-.223z"/><path fill="#362759" d="M45.492 50c-1.857-.011-8.51-.114-15.035-.998C22.773 47.96 11.485 44.5 7.17 36.95 4.905 32.987 3.98 28.886 4 25c-.02-3.886.905-7.987 3.17-11.95C11.485 5.5 22.773 2.04 30.457.999 36.982.115 43.634.011 45.49 0a.503.503 0 01.51.5S10.34.499 10.34 25 46 49.501 46 49.501c0 .276-.227.5-.508.499z"/></svg>